<?xml version="1.0" encoding="iso-8859-1"?>
<!-- Uploaded to: SVG Repo, www.svgrepo.com, Transformed by: SVG Repo Mixer Tools -->
<!DOCTYPE svg PUBLIC "-//W3C//DTD SVG 1.1//EN" "http://www.w3.org/Graphics/SVG/1.1/DTD/svg11.dtd">
<svg fill="currentcolor" height="800px" width="800px" version="1.1" id="Capa_1" xmlns="http://www.w3.org/2000/svg" xmlns:xlink="http://www.w3.org/1999/xlink" 
	 viewBox="0 0 59 59" xml:space="preserve">
<g>
	<path d="M45.5,5.499c-0.312,0-0.636,0.012-0.98,0.036c-1.414-1.912-3.621-3.036-6.02-3.036c-1.37,0-2.683,0.365-3.843,1.063
		L34.601,3.51c-0.131-0.123-0.266-0.243-0.409-0.359c-0.064-0.051-0.13-0.099-0.228-0.171c-0.13-0.097-0.261-0.191-0.395-0.277
		c-0.089-0.058-0.181-0.112-0.266-0.161c-0.133-0.079-0.268-0.154-0.406-0.225c-0.095-0.048-0.191-0.095-0.294-0.142
		c-0.142-0.064-0.284-0.123-0.454-0.188c-0.091-0.035-0.183-0.069-0.275-0.1c-0.152-0.051-0.308-0.095-0.539-0.155
		c-0.075-0.021-0.15-0.04-0.226-0.056c-0.174-0.039-0.351-0.066-0.595-0.103l-0.199-0.029c-0.538-0.058-1.088-0.058-1.638,0
		c-0.065,0.007-0.13,0.018-0.259,0.039c-0.178,0.026-0.356,0.054-0.526,0.091c-0.077,0.017-0.152,0.037-0.302,0.077
		c-0.157,0.041-0.313,0.085-0.462,0.135c-0.086,0.028-0.17,0.06-0.306,0.111c-0.145,0.056-0.289,0.115-0.428,0.178
		c-0.1,0.045-0.196,0.092-0.293,0.141c-0.138,0.07-0.271,0.145-0.404,0.223c-0.09,0.053-0.18,0.106-0.265,0.161
		c-0.138,0.089-0.271,0.184-0.43,0.303c-0.065,0.048-0.131,0.096-0.199,0.15c-0.139,0.112-0.272,0.231-0.447,0.393l-0.016,0.015
		c-1.16-0.698-2.472-1.063-3.842-1.063c-2.398,0-4.605,1.124-6.02,3.036c-0.345-0.024-0.669-0.036-0.98-0.036
		c-7.444,0-13.5,5.383-13.5,12c0,3.648,1.908,7.13,5.126,9.399c0.669,3.794,3.975,6.601,7.874,6.601
		c1.069,0,2.131-0.219,3.113-0.633l6.421,18.462c0.201,0.576,0.339,1.179,0.485,1.817l0.114,0.497
		c0.536,2.271,2.537,3.856,4.867,3.856h4c2.33,0,4.331-1.586,4.866-3.855c0.068-0.288,0.132-0.577,0.195-0.867
		c0.13-0.599,0.253-1.164,0.422-1.715l5.524-18.151c0.948,0.383,1.967,0.589,2.993,0.589c3.899,0,7.205-2.806,7.874-6.601
		C57.092,24.629,59,21.147,59,17.499C59,10.882,52.944,5.499,45.5,5.499z M35.57,50.478c-0.192,0.629-0.33,1.261-0.463,1.873
		c-0.061,0.277-0.121,0.555-0.188,0.833c-0.316,1.342-1.544,2.315-2.92,2.315h-4c-1.376,0-2.604-0.974-2.92-2.316l-0.112-0.484
		c-0.151-0.664-0.309-1.35-0.546-2.029l-5.745-16.518c1.052,0.322,2.134,0.443,3.317,0.275l5.063,14.404
		c0.161,0.456,0.622,0.733,1.102,0.656c0.478-0.076,0.832-0.483,0.842-0.967l0.268-13.053c0.242,0.022,0.486,0.033,0.732,0.033
		c0.019,0,0.037-0.004,0.055-0.005c0.317-0.002,0.632-0.019,0.945-0.059v9.063c0,0.457,0.31,0.856,0.753,0.969
		c0.44,0.113,0.905-0.089,1.125-0.49l5.728-10.501c0.672-0.05,1.327-0.184,1.955-0.397L35.57,50.478z M23.936,33.918
		c0.284-0.111,0.566-0.226,0.836-0.371c0.747,0.65,1.595,1.145,2.506,1.475l-0.163,7.94L23.936,33.918z M34.854,33.848
		c0.504,0.216,1.03,0.359,1.563,0.464L33,40.577v-5.691C33.655,34.618,34.285,34.285,34.854,33.848z M52.4,25.482l-0.392,0.256
		l-0.054,0.464c-0.353,3.02-2.913,5.297-5.955,5.297c-0.983,0-1.961-0.245-2.825-0.708l-0.622-0.333l-0.522,0.475
		c-0.19,0.172-0.395,0.321-0.602,0.465c-0.105,0.074-0.215,0.14-0.324,0.207c-0.185,0.112-0.372,0.22-0.568,0.311
		c-0.042,0.02-0.086,0.036-0.128,0.055c-1.653,0.718-3.601,0.688-5.229-0.184l-0.624-0.334l-0.522,0.477
		c-0.791,0.721-1.749,1.199-2.772,1.421c-0.074,0.016-0.147,0.038-0.221,0.051c-0.319,0.057-0.644,0.087-0.972,0.091
		c-0.5,0.004-1.009-0.051-1.529-0.183c-0.004-0.001-0.008,0.001-0.013,0c-1.091-0.276-2.088-0.852-2.888-1.7l-0.584-0.62
		l-0.705,0.478c-1.669,1.132-3.844,1.289-5.673,0.538c-0.014-0.006-0.029-0.012-0.043-0.018c-0.231-0.097-0.45-0.219-0.668-0.345
		c-0.106-0.063-0.214-0.123-0.316-0.193c-0.236-0.157-0.467-0.323-0.679-0.516l-0.522-0.475l-0.622,0.333
		c-0.864,0.463-1.842,0.708-2.825,0.708c-3.042,0-5.603-2.277-5.955-5.297l-0.054-0.464L6.6,25.482C3.677,23.567,2,20.657,2,17.499
		c0-5.514,5.159-10,11.5-10c0.417,0,0.867,0.025,1.374,0.078l0.623,0.064l0.33-0.532c1.015-1.635,2.761-2.611,4.673-2.611
		c1.228,0,2.393,0.401,3.368,1.159l0.77,0.598l0.617-0.754c0.119-0.146,0.248-0.284,0.426-0.456l0.08-0.072
		c0.098-0.09,0.196-0.18,0.296-0.26l0.176-0.131c0.093-0.069,0.187-0.137,0.288-0.202l0.191-0.117c0.1-0.059,0.2-0.114,0.303-0.167
		c0.067-0.035,0.137-0.068,0.209-0.101c0.104-0.047,0.209-0.09,0.36-0.148l0.175-0.063c0.111-0.037,0.226-0.068,0.426-0.122
		L28.32,3.63c0.127-0.028,0.257-0.047,0.389-0.066l0.188-0.03c0.396-0.042,0.726-0.056,1.286,0.013l0.108,0.018
		c0.131,0.019,0.261,0.038,0.392,0.067l0.218,0.056c0.114,0.03,0.229,0.062,0.34,0.099l0.221,0.081
		c0.107,0.041,0.213,0.084,0.313,0.129l0.211,0.102c0.102,0.052,0.201,0.107,0.306,0.169c0.064,0.037,0.127,0.074,0.191,0.115
		c0.1,0.064,0.193,0.133,0.337,0.239l0.12,0.089c0.103,0.083,0.2,0.171,0.302,0.266l0.121,0.109
		c0.136,0.133,0.264,0.272,0.385,0.419l0.618,0.75l0.767-0.596C36.107,4.9,37.272,4.499,38.5,4.499c1.912,0,3.658,0.976,4.673,2.611
		l0.33,0.532l0.623-0.064c0.507-0.053,0.957-0.078,1.374-0.078c6.341,0,11.5,4.486,11.5,10C57,20.657,55.323,23.567,52.4,25.482z"/>
	<path d="M16.362,18.438c0.248-0.494,0.049-1.095-0.444-1.343c-0.496-0.248-1.096-0.048-1.343,0.444
		c-0.991,1.971-3.398,2.769-5.37,1.778c-1.971-0.991-2.769-3.4-1.778-5.371c0.248-0.494,0.049-1.094-0.444-1.342
		c-0.497-0.248-1.095-0.048-1.343,0.445c-1.484,2.956-0.288,6.569,2.667,8.055c0.862,0.433,1.779,0.638,2.685,0.638
		C13.188,21.743,15.31,20.532,16.362,18.438z"/>
	<path d="M25.674,21.364c-0.543,0.103-0.899,0.625-0.797,1.168c0.408,2.167-1.022,4.264-3.189,4.673
		c-1.049,0.197-2.114-0.024-2.996-0.627c-0.883-0.602-1.478-1.512-1.676-2.562c-0.102-0.542-0.625-0.896-1.168-0.797
		c-0.543,0.103-0.899,0.625-0.797,1.168c0.297,1.575,1.189,2.939,2.514,3.843c1.008,0.688,2.174,1.046,3.369,1.046
		c0.373,0,0.75-0.035,1.125-0.106c3.251-0.613,5.396-3.757,4.783-7.009C26.74,21.62,26.217,21.263,25.674,21.364z"/>
	<path d="M37.589,18.497c0.803,0,1.617-0.162,2.398-0.504c1.468-0.643,2.598-1.819,3.181-3.312s0.551-3.124-0.093-4.591
		c-0.221-0.505-0.808-0.736-1.317-0.515c-0.506,0.222-0.736,0.812-0.515,1.317c0.429,0.979,0.451,2.065,0.063,3.061
		c-0.39,0.995-1.143,1.779-2.121,2.208c-2.021,0.886-4.383-0.039-5.269-2.059c-0.221-0.505-0.809-0.736-1.317-0.515
		c-0.506,0.222-0.736,0.812-0.515,1.317C33.069,17.154,35.277,18.497,37.589,18.497z"/>
	<path d="M42.983,24.789c-0.506-0.223-1.097,0.009-1.316,0.515c-0.429,0.979-1.212,1.733-2.207,2.123
		c-0.995,0.389-2.083,0.368-3.061-0.06c-0.979-0.428-1.732-1.212-2.122-2.207c-0.39-0.995-0.368-2.082,0.06-3.061
		c0.222-0.506-0.01-1.096-0.516-1.317c-0.506-0.224-1.096,0.009-1.316,0.515c-0.643,1.469-0.674,3.099-0.09,4.592
		c0.585,1.492,1.715,2.667,3.184,3.309c0.779,0.341,1.594,0.503,2.396,0.503c2.313,0,4.521-1.345,5.506-3.597
		C43.721,25.6,43.489,25.01,42.983,24.789z"/>
	<path d="M26.456,9.021c-0.447,0.325-0.546,0.95-0.221,1.397c0.628,0.864,0.882,1.921,0.715,2.977
		c-0.167,1.055-0.734,1.982-1.599,2.61c-1.785,1.296-4.29,0.9-5.588-0.884c-0.324-0.446-0.949-0.546-1.396-0.221
		c-0.446,0.325-0.546,0.95-0.221,1.397c1.172,1.613,3.004,2.471,4.861,2.47c1.223,0,2.457-0.372,3.52-1.144
		c1.297-0.942,2.148-2.333,2.398-3.916c0.251-1.583-0.131-3.169-1.073-4.465C27.528,8.795,26.903,8.696,26.456,9.021z"/>
	<path d="M51.114,12.745c-0.417,0.362-0.461,0.994-0.098,1.411c0.701,0.806,1.048,1.836,0.974,2.902
		c-0.073,1.066-0.558,2.04-1.363,2.741c-1.665,1.449-4.196,1.273-5.645-0.39c-0.363-0.417-0.998-0.46-1.41-0.097
		c-0.417,0.362-0.461,0.994-0.098,1.411c1.185,1.361,2.853,2.057,4.529,2.057c1.397,0,2.802-0.484,3.936-1.472
		c1.209-1.052,1.936-2.513,2.046-4.111c0.11-1.599-0.408-3.146-1.461-4.354C52.161,12.424,51.529,12.383,51.114,12.745z"/>
</g>
</svg>