<?xml version="1.0" encoding="iso-8859-1"?>
<!-- Uploaded to: SVG Repo, www.svgrepo.com, Transformed by: SVG Repo Mixer Tools -->
<!DOCTYPE svg PUBLIC "-//W3C//DTD SVG 1.1//EN" "http://www.w3.org/Graphics/SVG/1.1/DTD/svg11.dtd">
<svg fill="#000000" height="800px" width="800px" version="1.1" id="Capa_1" xmlns="http://www.w3.org/2000/svg" xmlns:xlink="http://www.w3.org/1999/xlink" 
	 viewBox="0 0 59 59" xml:space="preserve">
<g>
	<path d="M35.073,20.563c-0.494-0.248-1.096-0.048-1.342,0.445c-0.248,0.493-0.049,1.095,0.445,1.342
		c1.008,0.506,1.928,1.171,2.731,1.975c0.195,0.195,0.451,0.293,0.707,0.293s0.512-0.098,0.707-0.293
		c0.391-0.391,0.391-1.023,0-1.414C37.366,21.954,36.273,21.164,35.073,20.563z"/>
	<path d="M30.805,19.308c-3.802-0.411-7.528,0.903-10.228,3.603c-0.391,0.391-0.391,1.023,0,1.414
		c0.195,0.195,0.451,0.293,0.707,0.293s0.512-0.098,0.707-0.293c2.27-2.27,5.406-3.366,8.599-3.028
		c0.553,0.053,1.041-0.338,1.102-0.887C31.751,19.86,31.354,19.367,30.805,19.308z"/>
	<path d="M41.116,20.115c-6.434-6.434-16.9-6.434-23.334,0c-6.433,6.434-6.433,16.901,0,23.335
		c3.217,3.217,7.441,4.825,11.667,4.825s8.45-1.608,11.667-4.825C47.55,37.017,47.55,26.549,41.116,20.115z M39.702,42.036
		c-5.654,5.653-14.854,5.652-20.506,0c-5.652-5.653-5.652-14.854,0-20.507c2.827-2.826,6.54-4.24,10.253-4.24
		s7.426,1.414,10.253,4.24C45.355,27.183,45.355,36.383,39.702,42.036z"/>
	<path d="M57,31.5c0-7.17-2.825-14.058-7.799-19.172c2.948-1.061,4.986-3.271,4.986-5.828c0-3.584-3.995-6.5-8.906-6.5
		c-2.18,0-4.273,0.574-5.896,1.616C36.925,3.198,34.403,4,31.894,4H11.375C10.065,4,9,5.065,9,6.375v0.25C9,7.935,10.065,9,11.375,9
		H13.7C6.407,14.111,2,22.44,2,31.5C2,46.663,14.337,59,29.5,59c5.569,0,10.894-1.666,15.471-4.793
		c0.672,0.519,1.472,0.795,2.282,0.795c0.96,0,1.921-0.366,2.652-1.097c1.246-1.247,1.42-3.156,0.541-4.599
		C54.676,44.337,57,38.049,57,31.5z M11,6.625v-0.25C11,6.172,11.172,6,11.375,6h20.519c2.899,0,5.784-0.909,8.574-2.702
		C41.771,2.461,43.479,2,45.281,2c3.743,0,6.906,2.061,6.906,4.5c0,2.057-2.252,3.839-5.201,4.349
		c-0.266,0.045-0.531,0.08-0.793,0.105c-0.027,0.002-0.053,0.006-0.08,0.008c-0.282,0.024-0.562,0.036-0.838,0.037
		c-0.439,0-0.872-0.029-1.295-0.083c-0.019-0.002-0.038-0.005-0.057-0.008c-0.827-0.11-1.612-0.323-2.326-0.623
		c-0.055-0.023-0.11-0.048-0.164-0.072c-0.33-0.148-0.647-0.312-0.94-0.499c-0.008-0.005-0.017-0.009-0.024-0.014
		c-2.093-1.344-4.238-2.191-6.404-2.531C33.342,7.057,32.618,7,31.894,7H17.011h-5.636C11.172,7,11,6.828,11,6.625z M4,31.5
		C4,22.05,9.168,13.451,17.504,9h14.39c0.941,0,1.884,0.113,2.825,0.337c1.568,0.374,3.129,1.058,4.667,2.047
		c0.004,0.003,0.009,0.004,0.013,0.007c0.373,0.239,0.776,0.446,1.193,0.635c0.055,0.025,0.109,0.051,0.165,0.075
		c1.322,0.572,2.83,0.886,4.419,0.892c0.036,0,0.07,0.007,0.106,0.007c0.107,0,0.211-0.009,0.318-0.012
		c0.132-0.004,0.264-0.006,0.397-0.015c0.305-0.018,0.606-0.047,0.902-0.086c0.009-0.001,0.018-0.001,0.026-0.002
		C52.063,17.697,55,24.454,55,31.5c0,5.981-2.086,11.731-5.896,16.307c-0.048-0.048-0.096-0.095-0.147-0.146
		c-0.618-0.613-1.436-1.424-2.17-2.148c-0.084-0.083-0.167-0.165-0.249-0.245c-0.033-0.033-0.065-0.064-0.097-0.096
		c-0.113-0.111-0.222-0.219-0.326-0.321c-0.014-0.014-0.029-0.028-0.042-0.042c-0.122-0.12-0.24-0.236-0.345-0.339
		c1.63-2.086,2.8-4.39,3.519-6.787c0.54-1.798,0.826-3.649,0.862-5.5c0.108-5.553-2.034-11.11-6.328-15.257
		c-3.233-3.121-7.266-4.961-11.448-5.547c-5.854-0.821-12.001,0.836-16.672,5.041c-4.266,3.839-6.697,9.101-6.848,14.817
		c-0.15,5.72,1.994,11.098,6.039,15.143c0.422,0.422,0.859,0.823,1.309,1.202c6.742,5.688,16.376,6.496,24.062,1.829
		c0.092,0.097,0.195,0.205,0.303,0.317c0.032,0.034,0.067,0.07,0.101,0.105c0.092,0.096,0.187,0.195,0.287,0.298
		c0.013,0.014,0.026,0.027,0.039,0.041c0.799,0.827,1.806,1.858,2.563,2.629C39.347,55.552,34.527,57,29.5,57
		C15.439,57,4,45.561,4,31.5z M48.491,52.491c-0.683,0.682-1.795,0.681-2.469,0.005l-0.183-0.186
		c-0.375-0.381-1.287-1.309-2.216-2.261c-0.008-0.008-0.016-0.016-0.024-0.024c-0.18-0.185-0.36-0.369-0.537-0.551
		c-0.091-0.094-0.181-0.186-0.269-0.277c-0.066-0.068-0.131-0.135-0.195-0.202c-0.148-0.153-0.292-0.302-0.426-0.441
		c-0.032-0.033-0.062-0.065-0.093-0.097c-0.146-0.152-0.285-0.297-0.404-0.422c-0.091-0.096-0.19-0.179-0.294-0.253
		c-0.035-0.025-0.073-0.045-0.109-0.067c-0.072-0.045-0.146-0.087-0.222-0.123c-0.043-0.02-0.086-0.035-0.13-0.052
		c-0.076-0.029-0.153-0.053-0.232-0.072c-0.044-0.01-0.087-0.02-0.131-0.028c-0.085-0.015-0.171-0.022-0.258-0.026
		c-0.027-0.001-0.054-0.008-0.081-0.008c-0.009,0-0.018,0.004-0.026,0.004c-0.162,0.002-0.324,0.025-0.484,0.067
		c-0.031,0.008-0.06,0.018-0.091,0.028c-0.158,0.049-0.314,0.112-0.463,0.202c-0.005,0.003-0.01,0.004-0.015,0.006
		c-6.901,4.204-15.599,3.476-21.689-1.661c-0.406-0.343-0.8-0.705-1.182-1.086c-3.653-3.653-5.59-8.51-5.454-13.676
		c0.136-5.163,2.333-9.916,6.187-13.384c1.808-1.627,3.861-2.834,6.033-3.625c0.096-0.035,0.195-0.057,0.291-0.091
		c0.449-0.155,0.901-0.304,1.358-0.424c0.06-0.016,0.121-0.023,0.18-0.038c1.054-0.265,2.126-0.444,3.205-0.523
		c0.144-0.011,0.289-0.005,0.434-0.012c0.426-0.021,0.852-0.043,1.279-0.035c0.04,0.001,0.08,0.007,0.12,0.008
		c4.528,0.111,9.02,1.847,12.493,5.2c2.448,2.363,4.105,5.238,4.982,8.294c0.516,1.798,0.773,3.656,0.733,5.518
		c-0.083,3.909-1.402,7.815-3.997,11.113c-0.605,0.771-0.541,1.862,0.15,2.539c0.121,0.119,0.266,0.261,0.412,0.406
		c0.08,0.079,0.163,0.16,0.249,0.245c0.147,0.145,0.294,0.29,0.452,0.447l0,0c1.267,1.252,2.818,2.793,3.079,3.052l0.042,0.041
		C49.172,50.703,49.172,51.81,48.491,52.491z"/>
</g>
</svg>