<?xml version="1.0" encoding="iso-8859-1"?>
<!-- Uploaded to: SVG Repo, www.svgrepo.com, Transformed by: SVG Repo Mixer Tools -->
<!DOCTYPE svg PUBLIC "-//W3C//DTD SVG 1.1//EN" "http://www.w3.org/Graphics/SVG/1.1/DTD/svg11.dtd">
<svg fill="#000000" height="800px" width="800px" version="1.1" id="Capa_1" xmlns="http://www.w3.org/2000/svg" xmlns:xlink="http://www.w3.org/1999/xlink" 
	 viewBox="0 0 59 59" xml:space="preserve">
<g>
	<circle cx="29.5" cy="35" r="1"/>
	<circle cx="29.5" cy="39" r="1"/>
	<path d="M34.5,14V1c0-0.553-0.448-1-1-1s-1,0.447-1,1v13c0,1.302-0.839,2.402-2,2.816V1c0-0.553-0.448-1-1-1s-1,0.447-1,1v15.816
		c-1.161-0.414-2-1.514-2-2.816V1c0-0.553-0.448-1-1-1s-1,0.447-1,1v13c0,2.414,1.721,4.434,4,4.899v10.243
		c-1.72,0.447-3,1.999-3,3.858v22c0,2.206,1.794,4,4,4s4-1.794,4-4V33c0-1.859-1.28-3.411-3-3.858V18.899
		C32.779,18.434,34.5,16.414,34.5,14z M31.5,33v22c0,1.103-0.897,2-2,2s-2-0.897-2-2V33c0-1.103,0.897-2,2-2S31.5,31.897,31.5,33z"
		/>
</g>
</svg>