<svg width="339" height="307" viewBox="0 0 339 307" fill="none" xmlns="http://www.w3.org/2000/svg">
<path d="M103.677 101.415C104.779 102.519 106.226 103.074 107.672 103.074C109.118 103.074 110.565 102.519 111.667 101.415C113.876 99.1999 113.876 95.6198 111.667 93.405C105.932 87.6497 105.932 78.2918 111.667 72.5366C116.582 67.6084 119.294 61.0601 119.294 54.0927C119.294 47.1252 116.588 40.5769 111.667 35.6487C109.457 33.4339 105.887 33.4339 103.677 35.6487C101.468 37.8636 101.468 41.4436 103.677 43.6585C106.457 46.4455 107.994 50.1501 107.994 54.0927C107.994 58.0352 106.463 61.7399 103.677 64.5268C93.5357 74.6948 93.5357 91.2468 103.677 101.415Z" fill="#212121"/>
<path d="M227.978 101.415C229.079 102.519 230.526 103.074 231.972 103.074C233.418 103.074 234.865 102.519 235.967 101.415C238.176 99.1999 238.176 95.6198 235.967 93.405C230.232 87.6497 230.232 78.2918 235.967 72.5366C240.882 67.6084 243.594 61.0601 243.594 54.0927C243.594 47.1252 240.888 40.5769 235.967 35.6487C233.757 33.4339 230.187 33.4339 227.978 35.6487C225.768 37.8636 225.768 41.4436 227.978 43.6585C230.757 46.4455 232.294 50.1501 232.294 54.0927C232.294 58.0352 230.763 61.7399 227.978 64.5268C217.836 74.6948 217.836 91.2468 227.978 101.415Z" fill="#212121"/>
<path d="M165.828 67.4271C166.929 68.5317 168.376 69.0869 169.822 69.0869C171.268 69.0869 172.715 68.5317 173.817 67.4271C176.026 65.2123 176.026 61.6322 173.817 59.4174C168.082 53.6622 168.082 44.3042 173.817 38.549C178.732 33.6208 181.444 27.0725 181.444 20.1051C181.444 13.1376 178.738 6.58934 173.817 1.66114C171.607 -0.553715 168.037 -0.553715 165.828 1.66114C163.618 3.876 163.618 7.45603 165.828 9.67089C168.607 12.4579 170.144 16.1625 170.144 20.1051C170.144 24.0476 168.613 27.7523 165.828 30.5393C155.686 40.7072 155.686 57.2592 165.828 67.4271Z" fill="#212121"/>
<path d="M143.199 145.627C143.612 145.627 144.03 145.582 144.448 145.491C152.573 143.656 160.974 142.727 169.427 142.727C169.449 142.727 169.472 142.727 169.5 142.727C172.619 142.727 175.15 140.195 175.15 137.068C175.15 133.935 172.624 131.397 169.5 131.397C169.477 131.397 169.449 131.397 169.421 131.397C160.138 131.397 150.9 132.423 141.962 134.439C138.917 135.125 137.007 138.155 137.691 141.209C138.289 143.843 140.617 145.627 143.199 145.627Z" fill="#212121"/>
<path d="M55.4886 238.929C55.8333 238.997 56.1723 239.025 56.5056 239.025C59.1837 239.025 61.5624 237.11 62.0596 234.38C67.9299 202.103 87.332 173.383 113.96 157.568C116.644 155.976 117.531 152.498 115.944 149.807C114.35 147.117 110.887 146.227 108.203 147.819C78.8005 165.283 57.3983 196.88 50.946 232.341C50.381 235.422 52.415 238.368 55.4886 238.929Z" fill="#212121"/>
<path d="M314.276 231.225C304.038 170.948 257.171 123.053 197.507 111.452C197.603 110.546 197.75 109.634 197.75 108.733C197.75 93.1161 185.077 80.4104 169.5 80.4104C153.923 80.4104 141.25 93.1161 141.25 108.733C141.25 109.634 141.391 110.546 141.493 111.452C81.8289 123.053 34.9622 170.948 24.7244 231.225C12.9159 237.926 0 247.788 0 258.851C0 287.655 87.6428 307 169.5 307C251.357 307 339 287.655 339 258.851C339 247.788 326.084 237.926 314.276 231.225ZM152.584 109.713C152.561 109.385 152.55 109.056 152.55 108.739C152.55 99.3698 160.155 91.7453 169.5 91.7453C178.845 91.7453 186.45 99.3698 186.45 108.739C186.45 109.062 186.439 109.385 186.416 109.713C186.151 109.685 185.885 109.674 185.625 109.645C183.682 109.43 181.727 109.277 179.76 109.141C179.037 109.09 178.32 109.017 177.596 108.977C174.918 108.83 172.223 108.745 169.506 108.745C166.788 108.745 164.093 108.83 161.415 108.977C160.692 109.017 159.974 109.09 159.251 109.141C157.285 109.277 155.33 109.436 153.386 109.645C153.115 109.674 152.849 109.679 152.584 109.713ZM149.154 121.598C152.188 121.145 155.239 120.816 158.302 120.567C158.929 120.516 159.556 120.47 160.183 120.425C166.387 120.006 172.619 120.006 178.823 120.425C179.45 120.47 180.077 120.516 180.704 120.567C183.766 120.816 186.817 121.145 189.851 121.598C248.713 130.519 295.263 177.519 303.71 236.68C303.97 238.498 304.179 240.322 304.365 242.146C304.428 242.775 304.512 243.398 304.569 244.027C304.789 246.536 304.953 249.046 305.032 251.555C216.271 272.18 122.741 272.18 33.9791 251.555C34.0639 249.046 34.2221 246.536 34.4424 244.027C34.4989 243.398 34.578 242.775 34.6458 242.146C34.8323 240.316 35.0413 238.492 35.3012 236.68C43.7423 177.519 90.2927 130.514 149.154 121.598ZM169.5 295.671C72.9076 295.671 11.3 271.489 11.3 258.851C11.3 256.681 13.9781 251.9 22.9616 245.664C22.939 245.987 22.9503 246.304 22.9277 246.627C22.7356 249.731 22.6 252.858 22.6 256.019V260.482L26.9336 261.53C73.5687 272.746 121.537 278.365 169.5 278.365C217.463 278.365 265.431 272.752 312.066 261.53L316.4 260.482V256.019C316.4 252.858 316.264 249.737 316.072 246.627C316.05 246.304 316.061 245.987 316.038 245.664C325.022 251.9 327.7 256.681 327.7 258.851C327.7 271.489 266.092 295.671 169.5 295.671Z" fill="#212121"/>
</svg>
